<svg width="24" height="24" viewBox="0 0 24 24" fill="none" xmlns="http://www.w3.org/2000/svg">
<path d="M12 8.74999C11.59 8.74999 11.25 8.40999 11.25 7.99999V3.80999L10.53 4.52999C10.24 4.81999 9.76 4.81999 9.47 4.52999C9.18 4.23999 9.18 3.75999 9.47 3.46999L11.47 1.46999C11.68 1.25999 12.01 1.18999 12.29 1.30999C12.57 1.41999 12.75 1.69999 12.75 1.99999V7.99999C12.75 8.40999 12.41 8.74999 12 8.74999Z" fill="#E5E7EB"/>
<path d="M14 4.74994C13.81 4.74994 13.62 4.67994 13.47 4.52994L11.47 2.52994C11.18 2.23994 11.18 1.75994 11.47 1.46994C11.76 1.17994 12.24 1.17994 12.53 1.46994L14.53 3.46994C14.82 3.75994 14.82 4.23994 14.53 4.52994C14.38 4.67994 14.19 4.74994 14 4.74994Z" fill="#E5E7EB"/>
<path d="M16 22.75H8C2.25 22.75 2.25 19.7 2.25 17V16C2.25 13.77 2.25 11.25 7 11.25C8.19 11.25 8.63 11.54 9.25 12C9.28 12.03 9.32 12.05 9.35 12.09L10.37 13.17C11.23 14.08 12.79 14.08 13.65 13.17L14.67 12.09C14.7 12.06 14.73 12.03 14.77 12C15.39 11.53 15.83 11.25 17.02 11.25C21.77 11.25 21.77 13.77 21.77 16V17C21.75 20.82 19.82 22.75 16 22.75ZM7 12.75C3.75 12.75 3.75 13.77 3.75 16V17C3.75 19.74 3.75 21.25 8 21.25H16C18.98 21.25 20.25 19.98 20.25 17V16C20.25 13.77 20.25 12.75 17 12.75C16.28 12.75 16.13 12.84 15.7 13.16L14.73 14.19C14.01 14.95 13.04 15.37 12 15.37C10.96 15.37 9.99 14.95 9.27 14.19L8.3 13.16C7.87 12.84 7.72 12.75 7 12.75Z" fill="#E5E7EB"/>
<path d="M5 12.75C4.59 12.75 4.25 12.41 4.25 12V9.99997C4.25 8.05997 4.25 5.64997 7.93 5.29997C8.33 5.24997 8.71 5.55997 8.75 5.97997C8.79 6.38997 8.49 6.75997 8.07 6.79997C5.75 7.00997 5.75 7.94997 5.75 9.99997V12C5.75 12.41 5.41 12.75 5 12.75Z" fill="#E5E7EB"/>
<path d="M19 12.75C18.59 12.75 18.25 12.41 18.25 12V9.99998C18.25 7.94998 18.25 7.00998 15.93 6.78998C15.52 6.74998 15.22 6.37998 15.26 5.96998C15.3 5.55998 15.66 5.24998 16.08 5.29998C19.76 5.64998 19.76 8.05998 19.76 9.99998V12C19.75 12.41 19.41 12.75 19 12.75Z" fill="#E5E7EB"/>
</svg>
