<svg width="24" height="24" viewBox="0 0 24 24" fill="none" xmlns="http://www.w3.org/2000/svg">
    <path
        d="M14.2199 9.78L11.9999 10.89M11.9999 10.89L9.77986 9.78M11.9999 10.89V13.67M20.8899 6.44L18.6699 7.55M20.8899 6.44L18.6699 5.33M20.8899 6.44V9.22M14.2199 3.11L11.9999 2L9.77986 3.11M3.10986 6.44L5.32986 5.33M3.10986 6.44L5.32986 7.55M3.10986 6.44V9.22M11.9999 22L9.77986 20.89M11.9999 22L14.2199 20.89M11.9999 22V19.22M5.32986 18.67L3.10986 17.56V14.78M18.6699 18.67L20.8899 17.56V14.78"
         stroke-width="1.5" stroke-linecap="round" stroke-linejoin="round" />
</svg>
    