<svg width="24" height="24" viewBox="0 0 24 24" fill="none" xmlns="http://www.w3.org/2000/svg">
    <path
        d="M14.3201 19.0698C14.3201 19.6798 13.92 20.4798 13.41 20.7898L12.0001 21.6998C10.6901 22.5098 8.87006 21.5998 8.87006 19.9798V14.6298C8.87006 13.9198 8.47006 13.0098 8.06006 12.5098L4.22003 8.46976C3.71003 7.95976 3.31006 7.05977 3.31006 6.44977V4.12976C3.31006 2.91976 4.22008 2.00977 5.33008 2.00977H18.67C19.78 2.00977 20.6901 2.91975 20.6901 4.02975V6.24976C20.6901 7.05976 20.1801 8.06976 19.6801 8.56976"
        stroke-width="1.5" stroke-miterlimit="10" stroke-linecap="round"
        stroke-linejoin="round" />
    <path
        d="M16.0701 16.5201C17.8374 16.5201 19.2701 15.0874 19.2701 13.3201C19.2701 11.5528 17.8374 10.1201 16.0701 10.1201C14.3028 10.1201 12.8701 11.5528 12.8701 13.3201C12.8701 15.0874 14.3028 16.5201 16.0701 16.5201Z"
        stroke-width="1.5" stroke-linecap="round" stroke-linejoin="round" />
    <path d="M19.8701 17.1201L18.8701 16.1201" stroke-width="1.5"
        stroke-linecap="round" stroke-linejoin="round" />
</svg>
    