<svg width="20" height="20" viewBox="0 0 20 20" fill="none" xmlns="http://www.w3.org/2000/svg">
    <path
        d="M15.0672 6.14306C16.0982 5.54782 16.4515 4.2295 15.8562 3.19852C15.261 2.16753 13.9427 1.81429 12.9117 2.40953C11.8807 3.00477 11.5275 4.32308 12.1227 5.35407C12.7179 6.38505 14.0363 6.73829 15.0672 6.14306Z"
         stroke-width="1.5" stroke-linecap="round" stroke-linejoin="round" />
    <path
        d="M12.9104 16.9207C13.9414 17.5159 15.2597 17.1627 15.855 16.1317C16.4502 15.1007 16.097 13.7824 15.066 13.1872C14.035 12.5919 12.7167 12.9452 12.1214 13.9761C11.5262 15.0071 11.8794 16.3254 12.9104 16.9207Z"
         stroke-width="1.5" stroke-linecap="round" stroke-linejoin="round" />
    <path
        d="M4.65555 11.8204C5.84603 11.8204 6.81111 10.8553 6.81111 9.66483C6.81111 8.47435 5.84603 7.50928 4.65555 7.50928C3.46507 7.50928 2.5 8.47435 2.5 9.66483C2.5 10.8553 3.46507 11.8204 4.65555 11.8204Z"
         stroke-width="1.5" stroke-linecap="round" stroke-linejoin="round" />
    <path d="M6.98926 8.31738L9.32274 6.97016L11.6562 5.62294"  stroke-width="1.5"
        stroke-linecap="round" />
    <path d="M6.98926 11.0122L9.32239 12.3594L11.6555 13.7066"  stroke-width="1.5"
        stroke-linecap="round" />
</svg>
    